<svg width="89" height="89" viewBox="0 0 89 89" fill="none" xmlns="http://www.w3.org/2000/svg">
<g clip-path="url(#clip0_15_85)">
<path d="M50.3062 22.8581C50.0709 23.418 49.5383 23.7053 49.0355 23.7301C48.4559 23.7598 47.8564 23.47 47.5988 22.8581L45.1416 17.0123L40.9232 14.7087C40.3857 14.4164 40.081 13.9606 40.0612 13.4305C40.0414 12.9004 40.2693 12.3555 40.8068 12.0607L45.1416 9.68525L47.5988 3.83944C47.8366 3.27715 48.3642 2.99229 48.872 2.97247C49.3798 2.95266 50.004 3.16073 50.2418 3.72302L52.7659 9.68277L56.9843 11.9839C57.5218 12.2762 57.8191 12.732 57.8438 13.2621C57.8736 13.8764 57.5714 14.3891 56.9843 14.7087L52.7634 17.0099L50.3062 22.8532V22.8581ZM50.5192 15.0257C51.3713 14.0374 53.2291 13.7872 53.1053 13.2175C52.3052 12.7122 51.136 12.4422 50.4771 11.6372L48.9488 8.39967L47.4229 11.6471C46.7938 12.4471 45.5379 12.6354 44.7428 13.3488C45.5379 14.0746 46.8012 14.238 47.4229 15.048L48.9438 18.2954L50.5168 15.0257H50.5192Z" fill="#FDC422"/>
<path d="M38.57 0H35.6025V2.96749H38.57V0Z" fill="#FDC422"/>
<path d="M35.6025 2.96753H32.635V5.93502H35.6025V2.96753Z" fill="#FDC422"/>
<path d="M41.535 2.96753H38.5675V5.93502H41.535V2.96753Z" fill="#FDC422"/>
<path d="M38.57 5.93262H35.6025V8.90011H38.57V5.93262Z" fill="#FDC422"/>
<path d="M71.2025 2.96753H68.235V5.93502H71.2025V2.96753Z" fill="#FDC422"/>
<path d="M22.2537 4.44873H19.2863V7.41622H22.2537V4.44873Z" fill="#FDC422"/>
<path d="M38.57 19.2837H35.6025V22.2512H38.57V19.2837Z" fill="#FDC422"/>
<path d="M71.1604 88.9999H17.8446C17.2229 88.9999 16.8612 88.72 16.6209 88.4054C16.2791 87.9571 16.2494 87.4542 16.455 86.8548L26.2913 58.3639C20.7477 55.9314 16.0562 52.4388 11.8799 48.0916L11.87 80.3005C13.5593 81.0337 14.8177 82.4803 14.8226 84.353L14.8325 87.5211C14.8325 88.341 14.1935 88.9949 13.3513 88.9949H1.48872C0.644049 88.9949 0.00497294 88.3435 0.00497294 87.5211V84.5363C0.00497294 82.5819 1.20138 81.0585 2.96999 80.308V41.2996C1.34753 40.6357 0.242769 39.2709 0.0421285 37.6757C-0.185759 35.8724 0.636618 34.3242 2.06339 33.3062C-0.807496 30.2421 -0.614287 25.6992 2.21945 22.8902C5.07547 20.0565 9.74221 20.0491 12.6106 22.8828C15.4865 25.7239 15.6078 30.3139 12.7592 33.321C14.6814 34.5992 15.3552 36.8607 14.4114 38.9736L18.6868 43.2366L20.7675 44.9804V24.6885C18.6496 22.2264 18.8379 18.7115 21.0697 16.5143C23.3015 14.3172 26.866 14.2602 29.1795 16.3409C31.5501 18.4712 31.8547 22.0926 29.7146 24.6365C38.087 32.4194 50.918 32.4219 59.2879 24.6365C57.1849 22.1372 57.4376 18.5926 59.7239 16.4326C61.978 14.3048 65.5524 14.2875 67.8337 16.4251C70.1498 18.5975 70.3851 22.1892 68.2325 24.6935L68.2375 45.0226C70.5931 43.1945 72.4955 41.042 74.5985 38.991C73.6349 36.8558 74.3186 34.6066 76.2408 33.321C73.3947 30.3238 73.5111 25.7339 76.3894 22.8902C79.2677 20.0466 83.8998 20.0639 86.7756 22.8902C89.6515 25.7165 89.7679 30.3189 86.9267 33.3161C88.4229 34.3515 89.1759 35.9244 88.953 37.6732C88.7597 39.2015 87.7343 40.6308 86.035 41.2674V80.303C87.7194 81.0338 88.9777 82.4828 88.9827 84.353L88.9926 87.5236C88.9926 88.3435 88.3535 88.9974 87.5138 88.9974H75.6537C74.814 88.9974 74.17 88.346 74.1725 87.5236L74.1824 84.3579C74.1873 82.4704 75.4407 81.0412 77.1375 80.308L77.1276 48.1065C72.9364 52.4462 68.2523 55.9413 62.7211 58.3787L72.5995 87.0009C72.7457 87.5682 72.6962 88.0041 72.384 88.4104C72.1413 88.725 71.7821 89.0024 71.1604 89.0024V88.9999ZM28.1813 20.7674C28.1813 19.1301 26.8536 17.8024 25.2163 17.8024C23.579 17.8024 22.2513 19.1301 22.2513 20.7674C22.2513 22.4047 23.579 23.7324 25.2163 23.7324C26.8536 23.7324 28.1813 22.4047 28.1813 20.7674ZM66.7488 20.7674C66.7488 19.1301 65.4211 17.8024 63.7838 17.8024C62.1464 17.8024 60.8188 19.1301 60.8188 20.7674C60.8188 22.4047 62.1464 23.7324 63.7838 23.7324C65.4211 23.7324 66.7488 22.4047 66.7488 20.7674ZM11.8576 28.1812C11.8576 25.7289 9.86854 23.7398 7.41627 23.7398C4.964 23.7398 2.97494 25.7289 2.97494 28.1812C2.97494 30.6334 4.964 32.6225 7.41627 32.6225C9.86854 32.6225 11.8576 30.6334 11.8576 28.1812ZM86.0226 28.1812C86.0226 25.7289 84.0336 23.7398 81.5813 23.7398C79.129 23.7398 77.14 25.7289 77.14 28.1812C77.14 30.6334 79.129 32.6225 81.5813 32.6225C84.0336 32.6225 86.0226 30.6334 86.0226 28.1812ZM23.7127 26.5463V43.0162H26.7025V26.5463H23.7127ZM62.2802 26.5463V43.0162H65.27V26.5463H62.2802ZM56.3502 43.0162C56.967 43.0335 57.5193 43.3357 57.715 43.893L59.8923 50.1352C62.4511 48.971 64.7746 47.6556 66.9841 46.0109L60.8163 45.9812C59.9815 45.9589 59.3523 45.3545 59.34 44.49L59.3301 28.4834C50.5019 35.102 38.5105 35.0995 29.6824 28.4858L29.6725 44.4875C29.6576 45.352 29.0284 45.9564 28.1962 45.9812L22.0283 46.0084C24.2453 47.6482 26.5489 48.9759 29.1226 50.1327L31.238 44.0194C31.4733 43.3382 32.0752 42.9666 32.8431 43.0137H56.3551L56.3502 43.0162ZM10.4804 38.5451C11.4786 38.5426 11.9691 37.589 11.8452 36.8384C11.7214 36.0879 11.0699 35.59 10.2054 35.59H4.63456C3.70567 35.59 3.02448 36.1424 2.97494 37.0019C2.93036 37.7896 3.52732 38.5649 4.45126 38.5624L10.4828 38.5451H10.4804ZM84.6479 38.5451C85.6461 38.5426 86.1366 37.589 86.0127 36.8384C85.8889 36.0879 85.2374 35.59 84.3729 35.59H78.8021C77.8732 35.59 77.192 36.1424 77.1424 37.0019C77.0978 37.7896 77.6948 38.5649 78.6188 38.5624L84.6503 38.5451H84.6479ZM77.14 41.4308C77.14 41.2376 76.8749 41.0816 76.7065 41.1187L73.2485 44.5395C57.2568 60.3529 31.5302 60.1919 15.5707 44.3538L12.2911 41.1014C12.0112 41.1088 11.8576 41.3169 11.8601 41.5151L11.8923 43.9005L15.8233 47.8092C32.1 63.4022 57.8736 63.0876 73.8331 47.1677L77.1078 43.9005L77.14 41.4333V41.4308ZM5.935 41.5324V80.0999H8.9025V41.5324H5.935ZM80.1025 41.5324V80.0999H83.07V41.5324H80.1025ZM57.1156 51.23L55.2875 45.9836H33.7175L31.8919 51.2374C40.0587 54.1108 48.9438 54.1257 57.1156 51.2325V51.23ZM69.0921 86.0225L59.979 59.5182C49.9024 63.2288 39.1001 63.2189 29.0309 59.5132L19.8956 86.0275H69.0921V86.0225ZM11.8452 86.0349L11.865 84.5412C11.8749 83.7114 11.2284 83.0699 10.3887 83.0699H4.44878C3.60906 83.0699 2.96008 83.7089 2.97247 84.5412L2.9898 86.0349H11.8477H11.8452ZM86.0127 86.0349L86.0325 84.5412C86.0424 83.7114 85.3959 83.0699 84.5562 83.0699H78.6163C77.7766 83.0699 77.1276 83.7089 77.14 84.5412L77.1573 86.0349H86.0152H86.0127Z" fill="#FDC422"/>
</g>
<defs>
<clipPath id="clip0_15_85">
<rect width="89" height="89" fill="white"/>
</clipPath>
</defs>
</svg>
